# xmcd
#
# Track frame offsets: 
#        150
#        20935
#        46615
#        74313
#        101701
#        125047
#        146300
#        169207
#        193176
#        265632
#
# Disc length: 3896 seconds
#
# Revision: 0
# Processed by: cddbd v1.5.2PL0 Copyright (c) Steve Scherf et al.
# Submitted via: ExactAudioCopy v0.95a5
#
DISCID=900f360a
DTITLE=Maciej Balcar - Ruletka
DYEAR=2015
DGENRE=Blues
TTITLE0=Nadzieja
TTITLE1=Cklone Male Rzeczy
TTITLE2=Wojan
TTITLE3=Game Is Over
TTITLE4=Niewierni Sobie
TTITLE5=Sierpniowe Ludzie
TTITLE6=Deszczowe Dni
TTITLE7=Rulketka
TTITLE8=W Prozni
TTITLE9=In Your Name
EXTD=
EXTT0=
EXTT1=
EXTT2=
EXTT3=
EXTT4=
EXTT5=
EXTT6=
EXTT7=
EXTT8=
EXTT9=
PLAYORDER=
